<svg width="65" height="65" viewBox="0 0 65 65" fill="none" xmlns="http://www.w3.org/2000/svg">
<path d="M54.3021 29.7916H10.6979C9.27693 29.7916 8.125 30.9436 8.125 32.3645V32.6354C8.125 34.0564 9.27693 35.2083 10.6979 35.2083H54.3021C55.7231 35.2083 56.875 34.0564 56.875 32.6354V32.3645C56.875 30.9436 55.7231 29.7916 54.3021 29.7916Z" fill="#DA5F17"/>
<path d="M54.3021 43.3334H10.6979C9.27693 43.3334 8.125 44.4853 8.125 45.9063V46.1771C8.125 47.5981 9.27693 48.75 10.6979 48.75H54.3021C55.7231 48.75 56.875 47.5981 56.875 46.1771V45.9063C56.875 44.4853 55.7231 43.3334 54.3021 43.3334Z" fill="#DA5F17"/>
<path d="M54.3021 16.25H10.6979C9.27693 16.25 8.125 17.4019 8.125 18.8229V19.0938C8.125 20.5147 9.27693 21.6667 10.6979 21.6667H54.3021C55.7231 21.6667 56.875 20.5147 56.875 19.0938V18.8229C56.875 17.4019 55.7231 16.25 54.3021 16.25Z" fill="#DA5F17"/>
</svg>
